{
  "accessors": [
    {
      "bufferView": 2,
      "componentType": 5126,
      "count": 14615,
      "max": [
        0.9960193037986755,
        1.9745814800262451,
        1.2143656015396118
      ],
      "min": [
        -0.9496278762817383,
        -0.8923727869987488,
        -1.999897837638855
      ],
      "type": "VEC3"
    },
    {
      "bufferView": 2,
      "byteOffset": 175380,
      "componentType": 5126,
      "count": 14615,
      "max": [
        0.9999953508377075,
        0.9999979734420776,
        0.9997795820236206
      ],
      "min": [
        -0.9999663829803467,
        -1.0,
        -0.9998941421508789
      ],
      "type": "VEC3"
    },
    {
      "bufferView": 1,
      "componentType": 5126,
      "count": 14615,
      "max": [
        0.9875984191894531,
        1.0
      ],
      "min": [
        0.0,
        0.0
      ],
      "type": "VEC2"
    },
    {
      "bufferView": 0,
      "componentType": 5125,
      "count": 82944,
      "type": "SCALAR"
    },
    {
      "bufferView": 2,
      "byteOffset": 350760,
      "componentType": 5126,
      "count": 1096,
      "max": [
        1.0486280918121338,
        2.199094772338867,
        1.0563668012619019
      ],
      "min": [
        -1.0486280918121338,
        -2.87457275390625,
        -3.2040703296661377
      ],
      "type": "VEC3"
    },
    {
      "bufferView": 2,
      "byteOffset": 363912,
      "componentType": 5126,
      "count": 1096,
      "max": [
        1.0,
        0.9999505281448364,
        0.9998427629470825
      ],
      "min": [
        -1.0,
        -0.9999990463256836,
        -0.9999630451202393
      ],
      "type": "VEC3"
    },
    {
      "bufferView": 1,
      "byteOffset": 116920,
      "componentType": 5126,
      "count": 1096,
      "max": [
        0.8750001192092896,
        1.0000001192092896
      ],
      "min": [
        0.1250000149011612,
        0.0
      ],
      "type": "VEC2"
    },
    {
      "bufferView": 0,
      "byteOffset": 331776,
      "componentType": 5125,
      "count": 5376,
      "type": "SCALAR"
    },
    {
      "bufferView": 2,
      "byteOffset": 377064,
      "componentType": 5126,
      "count": 1096,
      "max": [
        1.0300325155258179,
        1.6224462985992432,
        1.357277274131775
      ],
      "min": [
        -1.05354905128479,
        -2.8983218669891357,
        -3.203969717025757
      ],
      "type": "VEC3"
    },
    {
      "bufferView": 2,
      "byteOffset": 390216,
      "componentType": 5126,
      "count": 1096,
      "max": [
        0.9992351531982422,
        0.9998430013656616,
        0.9999775886535645
      ],
      "min": [
        -0.9992994070053101,
        -0.9999079704284668,
        -0.9983586668968201
      ],
      "type": "VEC3"
    },
    {
      "bufferView": 1,
      "byteOffset": 125688,
      "componentType": 5126,
      "count": 1096,
      "max": [
        0.8750001192092896,
        1.0000001192092896
      ],
      "min": [
        0.1250000149011612,
        0.0
      ],
      "type": "VEC2"
    },
    {
      "bufferView": 0,
      "byteOffset": 353280,
      "componentType": 5125,
      "count": 5376,
      "type": "SCALAR"
    },
    {
      "bufferView": 2,
      "byteOffset": 403368,
      "componentType": 5126,
      "count": 6119,
      "max": [
        1.0000001192092896,
        1.6462225914001465,
        1.9075638055801392
      ],
      "min": [
        -1.0000001192092896,
        -4.180330276489258,
        -4.657648086547852
      ],
      "type": "VEC3"
    },
    {
      "bufferView": 2,
      "byteOffset": 476796,
      "componentType": 5126,
      "count": 6119,
      "max": [
        1.0,
        0.9998784065246582,
        0.9997210502624512
      ],
      "min": [
        -1.0,
        -0.999998927116394,
        -0.9999760389328003
      ],
      "type": "VEC3"
    },
    {
      "bufferView": 1,
      "byteOffset": 134456,
      "componentType": 5126,
      "count": 6119,
      "max": [
        0.9974303841590881,
        0.9917523860931396
      ],
      "min": [
        0.00464262068271637,
        0.010885268449783325
      ],
      "type": "VEC2"
    },
    {
      "bufferView": 0,
      "byteOffset": 374784,
      "componentType": 5125,
      "count": 32256,
      "type": "SCALAR"
    },
    {
      "bufferView": 2,
      "byteOffset": 550224,
      "componentType": 5126,
      "count": 1410,
      "max": [
        38.7944221496582,
        70.58043670654297,
        5.061714172363281
      ],
      "min": [
        15.266551971435547,
        16.012493133544922,
        -58.70073318481445
      ],
      "type": "VEC3"
    },
    {
      "bufferView": 2,
      "byteOffset": 567144,
      "componentType": 5126,
      "count": 1410,
      "max": [
        0.999879002571106,
        0.9992964267730713,
        0.9994363784790039
      ],
      "min": [
        -0.9998613595962524,
        -0.999936580657959,
        -0.999869704246521
      ],
      "type": "VEC3"
    },
    {
      "bufferView": 1,
      "byteOffset": 183408,
      "componentType": 5126,
      "count": 1410,
      "max": [
        0.8750001192092896,
        1.0000001192092896
      ],
      "min": [
        0.1250000149011612,
        0.0
      ],
      "type": "VEC2"
    },
    {
      "bufferView": 0,
      "byteOffset": 503808,
      "componentType": 5125,
      "count": 7680,
      "type": "SCALAR"
    },
    {
      "bufferView": 2,
      "byteOffset": 584064,
      "componentType": 5126,
      "count": 882,
      "max": [
        39.19418716430664,
        61.83518981933594,
        -15.305039405822754
      ],
      "min": [
        35.48793029785156,
        25.86378288269043,
        -50.90800094604492
      ],
      "type": "VEC3"
    },
    {
      "bufferView": 2,
      "byteOffset": 594648,
      "componentType": 5126,
      "count": 882,
      "max": [
        0.9994564056396484,
        0.9923690557479858,
        0.994134247303009
      ],
      "min": [
        -0.9994564056396484,
        -0.9923690557479858,
        -0.994134247303009
      ],
      "type": "VEC3"
    },
    {
      "bufferView": 1,
      "byteOffset": 194688,
      "componentType": 5126,
      "count": 882,
      "max": [
        0.8750001192092896,
        1.0000001192092896
      ],
      "min": [
        0.1250000149011612,
        0.0
      ],
      "type": "VEC2"
    },
    {
      "bufferView": 0,
      "byteOffset": 534528,
      "componentType": 5125,
      "count": 4608,
      "type": "SCALAR"
    },
    {
      "bufferView": 2,
      "byteOffset": 605232,
      "componentType": 5126,
      "count": 5315,
      "max": [
        22.15432357788086,
        83.75425720214844,
        21.607507705688477
      ],
      "min": [
        8.459704399108887,
        -18.123764038085938,
        -100.32881927490234
      ],
      "type": "VEC3"
    },
    {
      "bufferView": 2,
      "byteOffset": 669012,
      "componentType": 5126,
      "count": 5315,
      "max": [
        1.0,
        0.9999986886978149,
        0.9996547698974609
      ],
      "min": [
        -1.0,
        -0.9992580413818359,
        -0.9993634223937988
      ],
      "type": "VEC3"
    },
    {
      "bufferView": 1,
      "byteOffset": 201744,
      "componentType": 5126,
      "count": 5315,
      "max": [
        0.8750001192092896,
        1.0000001192092896
      ],
      "min": [
        0.125,
        0.0
      ],
      "type": "VEC2"
    },
    {
      "bufferView": 0,
      "byteOffset": 552960,
      "componentType": 5125,
      "count": 27648,
      "type": "SCALAR"
    },
    {
      "bufferView": 2,
      "byteOffset": 732792,
      "componentType": 5126,
      "count": 705,
      "max": [
        37.527626037597656,
        45.46427536010742,
        -35.643096923828125
      ],
      "min": [
        31.739423751831055,
        32.68096923828125,
        -50.48891830444336
      ],
      "type": "VEC3"
    },
    {
      "bufferView": 2,
      "byteOffset": 741252,
      "componentType": 5126,
      "count": 705,
      "max": [
        1.0,
        0.989905595779419,
        0.9804772734642029
      ],
      "min": [
        -1.0,
        -0.999901533126831,
        -0.9991294145584106
      ],
      "type": "VEC3"
    },
    {
      "bufferView": 1,
      "byteOffset": 244264,
      "componentType": 5126,
      "count": 705,
      "max": [
        0.8750001192092896,
        1.0000001192092896
      ],
      "min": [
        0.1250000149011612,
        0.0
      ],
      "type": "VEC2"
    },
    {
      "bufferView": 0,
      "byteOffset": 663552,
      "componentType": 5125,
      "count": 3840,
      "type": "SCALAR"
    },
    {
      "bufferView": 2,
      "byteOffset": 749712,
      "componentType": 5126,
      "count": 1105,
      "max": [
        33.90772247314453,
        39.56211853027344,
        -30.98751449584961
      ],
      "min": [
        20.541587829589844,
        5.5601911544799805,
        -68.97003936767578
      ],
      "type": "VEC3"
    },
    {
      "bufferView": 2,
      "byteOffset": 762972,
      "componentType": 5126,
      "count": 1105,
      "max": [
        0.9992325305938721,
        0.9702488780021667,
        0.9610409140586853
      ],
      "min": [
        -0.9997075796127319,
        -0.9992252588272095,
        -0.9964568614959717
      ],
      "type": "VEC3"
    },
    {
      "bufferView": 1,
      "byteOffset": 249904,
      "componentType": 5126,
      "count": 1105,
      "max": [
        0.8750001192092896,
        1.0000001192092896
      ],
      "min": [
        0.125,
        0.0
      ],
      "type": "VEC2"
    },
    {
      "bufferView": 0,
      "byteOffset": 678912,
      "componentType": 5125,
      "count": 6144,
      "type": "SCALAR"
    },
    {
      "bufferView": 2,
      "byteOffset": 776232,
      "componentType": 5126,
      "count": 1368,
      "max": [
        1.3735250234603882,
        8.303236961364746,
        9.823715209960938
      ],
      "min": [
        -1.3735250234603882,
        -0.6931450366973877,
        -0.8521325588226318
      ],
      "type": "VEC3"
    },
    {
      "bufferView": 2,
      "byteOffset": 792648,
      "componentType": 5126,
      "count": 1368,
      "max": [
        0.9999755620956421,
        0.9933590888977051,
        0.9996160268783569
      ],
      "min": [
        -0.999975323677063,
        -0.9999619722366333,
        -0.9961189031600952
      ],
      "type": "VEC3"
    },
    {
      "bufferView": 1,
      "byteOffset": 258744,
      "componentType": 5126,
      "count": 1368,
      "max": [
        0.9630759954452515,
        0.9750802516937256
      ],
      "min": [
        0.015619546175003052,
        0.03287425637245178
      ],
      "type": "VEC2"
    },
    {
      "bufferView": 0,
      "byteOffset": 703488,
      "componentType": 5125,
      "count": 6912,
      "type": "SCALAR"
    }
  ],
  "asset": {
    "extras": {
      "author": "fupi (https://sketchfab.com/fupi)",
      "license": "CC-BY-4.0 (http://creativecommons.org/licenses/by/4.0/)",
      "source": "https://sketchfab.com/3d-models/scratch-cat-9b6cb8f674b44aa7ac6f5f6a58d647bf",
      "title": "Scratch Cat"
    },
    "generator": "Sketchfab-12.66.0",
    "version": "2.0"
  },
  "bufferViews": [
    {
      "buffer": 0,
      "byteLength": 731136,
      "name": "floatBufferViews",
      "target": 34963
    },
    {
      "buffer": 0,
      "byteLength": 269688,
      "byteOffset": 731136,
      "byteStride": 8,
      "name": "floatBufferViews",
      "target": 34962
    },
    {
      "buffer": 0,
      "byteLength": 809064,
      "byteOffset": 1000824,
      "byteStride": 12,
      "name": "floatBufferViews",
      "target": 34962
    }
  ],
  "buffers": [
    {
      "byteLength": 1809888,
      "uri": "scene.bin"
    }
  ],
  "images": [
    {
      "uri": "textures/Head_baseColor.png"
    },
    {
      "uri": "textures/Body_baseColor.png"
    },
    {
      "uri": "textures/Tail_baseColor.png"
    }
  ],
  "materials": [
    {
      "doubleSided": true,
      "name": "Head",
      "pbrMetallicRoughness": {
        "baseColorTexture": {
          "index": 0
        },
        "metallicFactor": 0.0,
        "roughnessFactor": 0.47283481320525794
      }
    },
    {
      "doubleSided": true,
      "name": "material",
      "pbrMetallicRoughness": {
        "baseColorFactor": [
          1.0,
          0.3002697828669517,
          0.0,
          1.0
        ],
        "metallicFactor": 0.0,
        "roughnessFactor": 0.473
      }
    },
    {
      "doubleSided": true,
      "name": "Body",
      "pbrMetallicRoughness": {
        "baseColorTexture": {
          "index": 1
        },
        "metallicFactor": 0.0,
        "roughnessFactor": 0.473
      }
    },
    {
      "doubleSided": true,
      "name": "material_3",
      "pbrMetallicRoughness": {
        "metallicFactor": 0.0,
        "roughnessFactor": 0.277273
      }
    },
    {
      "doubleSided": true,
      "name": "Cornea",
      "pbrMetallicRoughness": {
        "baseColorFactor": [
          0.0,
          0.005090970000000002,
          0.0189608,
          1.0
        ],
        "metallicFactor": 0.0,
        "roughnessFactor": 0.190909
      }
    },
    {
      "doubleSided": true,
      "name": "Whiskers",
      "pbrMetallicRoughness": {
        "baseColorFactor": [
          0.0,
          0.0,
          0.0,
          1.0
        ],
        "metallicFactor": 0.0,
        "roughnessFactor": 0.5858880675687995
      }
    },
    {
      "doubleSided": true,
      "name": "Nose",
      "pbrMetallicRoughness": {
        "baseColorFactor": [
          0.0,
          0.0,
          0.0,
          1.0
        ],
        "metallicFactor": 0.0,
        "roughnessFactor": 0.6486954311041004
      }
    },
    {
      "doubleSided": true,
      "name": "Mouth",
      "pbrMetallicRoughness": {
        "metallicFactor": 0.0,
        "roughnessFactor": 0.0
      }
    },
    {
      "doubleSided": true,
      "name": "Tail",
      "pbrMetallicRoughness": {
        "baseColorTexture": {
          "index": 2
        },
        "metallicFactor": 0.0,
        "roughnessFactor": 0.473
      }
    }
  ],
  "meshes": [
    {
      "name": "Object_0",
      "primitives": [
        {
          "attributes": {
            "NORMAL": 1,
            "POSITION": 0,
            "TEXCOORD_0": 2
          },
          "indices": 3,
          "material": 0,
          "mode": 4
        }
      ]
    },
    {
      "name": "Object_1",
      "primitives": [
        {
          "attributes": {
            "NORMAL": 5,
            "POSITION": 4,
            "TEXCOORD_0": 6
          },
          "indices": 7,
          "material": 1,
          "mode": 4
        }
      ]
    },
    {
      "name": "Object_2",
      "primitives": [
        {
          "attributes": {
            "NORMAL": 9,
            "POSITION": 8,
            "TEXCOORD_0": 10
          },
          "indices": 11,
          "material": 1,
          "mode": 4
        }
      ]
    },
    {
      "name": "Object_3",
      "primitives": [
        {
          "attributes": {
            "NORMAL": 13,
            "POSITION": 12,
            "TEXCOORD_0": 14
          },
          "indices": 15,
          "material": 2,
          "mode": 4
        }
      ]
    },
    {
      "name": "Object_4",
      "primitives": [
        {
          "attributes": {
            "NORMAL": 17,
            "POSITION": 16,
            "TEXCOORD_0": 18
          },
          "indices": 19,
          "material": 3,
          "mode": 4
        }
      ]
    },
    {
      "name": "Object_5",
      "primitives": [
        {
          "attributes": {
            "NORMAL": 21,
            "POSITION": 20,
            "TEXCOORD_0": 22
          },
          "indices": 23,
          "material": 4,
          "mode": 4
        }
      ]
    },
    {
      "name": "Object_6",
      "primitives": [
        {
          "attributes": {
            "NORMAL": 25,
            "POSITION": 24,
            "TEXCOORD_0": 26
          },
          "indices": 27,
          "material": 5,
          "mode": 4
        }
      ]
    },
    {
      "name": "Object_7",
      "primitives": [
        {
          "attributes": {
            "NORMAL": 29,
            "POSITION": 28,
            "TEXCOORD_0": 30
          },
          "indices": 31,
          "material": 6,
          "mode": 4
        }
      ]
    },
    {
      "name": "Object_8",
      "primitives": [
        {
          "attributes": {
            "NORMAL": 33,
            "POSITION": 32,
            "TEXCOORD_0": 34
          },
          "indices": 35,
          "material": 7,
          "mode": 4
        }
      ]
    },
    {
      "name": "Object_9",
      "primitives": [
        {
          "attributes": {
            "NORMAL": 37,
            "POSITION": 36,
            "TEXCOORD_0": 38
          },
          "indices": 39,
          "material": 8,
          "mode": 4
        }
      ]
    }
  ],
  "nodes": [
    {
      "children": [
        1
      ],
      "matrix": [
        5.057945283528037e-05,
        -1.0324196412804691e-17,
        0.16860694178301383,
        0.0,
        0.16860694178301383,
        2.7125296257644502e-17,
        -5.057945283528037e-05,
        0.0,
        -2.712219916020938e-17,
        0.1686069518327713,
        1.033233244148613e-17,
        0.0,
        -0.2026289403438568,
        0.3866525888442995,
        -0.6915202736854552,
        1.0
      ],
      "name": "Sketchfab_model"
    },
    {
      "children": [
        2
      ],
      "name": "root"
    },
    {
      "children": [
        3
      ],
      "matrix": [
        1.0,
        0.0,
        0.0,
        0.0,
        0.0,
        2.220446049250313e-16,
        1.0,
        0.0,
        0.0,
        -1.0,
        2.220446049250313e-16,
        0.0,
        0.0,
        0.0,
        0.0,
        1.0
      ],
      "name": "GLTF_SceneRootNode"
    },
    {
      "children": [
        4,
        5,
        7,
        9,
        11,
        17
      ],
      "matrix": [
        1.0,
        0.0,
        0.0,
        0.0,
        0.0,
        1.0,
        0.0,
        0.0,
        0.0,
        0.0,
        1.0,
        0.0,
        0.19855014979839325,
        0.7689782381057739,
        -0.23069344460964203,
        1.0
      ],
      "name": "Head_7"
    },
    {
      "mesh": 0,
      "name": "Object_4"
    },
    {
      "children": [
        6
      ],
      "matrix": [
        0.2022167295217514,
        0.0,
        0.0,
        0.0,
        0.0,
        0.12217524347948369,
        -0.16113603447314453,
        0.0,
        0.0,
        0.16113603447314453,
        0.12217524347948369,
        0.0,
        0.27776575088500977,
        -1.0477793216705322,
        0.7550952434539795,
        1.0
      ],
      "name": "Arm1_2"
    },
    {
      "mesh": 1,
      "name": "Object_6"
    },
    {
      "children": [
        8
      ],
      "matrix": [
        0.2009876456184531,
        0.021103211786359644,
        -0.007087487993126804,
        0.0,
        -0.012589962563570959,
        0.16084877028401467,
        0.12190478934713644,
        0.0,
        0.018359491443866813,
        -0.12072258042015852,
        0.16118500365155353,
        0.0,
        -0.5862944722175598,
        -1.2257797718048096,
        -0.5789543390274048,
        1.0
      ],
      "name": "Arm2_3"
    },
    {
      "mesh": 2,
      "name": "Object_8"
    },
    {
      "children": [
        10
      ],
      "matrix": [
        0.46271342039108276,
        0.0,
        0.0,
        0.0,
        -0.0,
        0.39612683779911845,
        -0.23913853262342685,
        0.0,
        0.0,
        0.23913853262342685,
        0.39612683779911845,
        0.0,
        -0.16369280219078064,
        -1.293851613998413,
        0.2018921822309494,
        1.0
      ],
      "name": "Body_4"
    },
    {
      "mesh": 3,
      "name": "Object_10"
    },
    {
      "children": [
        12,
        13,
        14,
        15,
        16
      ],
      "matrix": [
        0.027676060795783997,
        0.0,
        0.0,
        0.0,
        0.0,
        0.02164929309118659,
        -0.017241590698767687,
        0.0,
        0.0,
        0.017241590698767687,
        0.02164929309118659,
        0.0,
        0.03485734760761261,
        0.1974455714225769,
        0.8903491497039795,
        1.0
      ],
      "name": "Face_5"
    },
    {
      "mesh": 4,
      "name": "Object_12"
    },
    {
      "mesh": 5,
      "name": "Object_13"
    },
    {
      "mesh": 6,
      "name": "Object_14"
    },
    {
      "mesh": 7,
      "name": "Object_15"
    },
    {
      "mesh": 8,
      "name": "Object_16"
    },
    {
      "children": [
        18
      ],
      "matrix": [
        0.13478213548660278,
        0.0,
        0.0,
        0.0,
        0.0,
        0.1300058423064781,
        0.03556269130018282,
        0.0,
        0.0,
        -0.03556269130018282,
        0.1300058423064781,
        0.0,
        -0.16369280219078064,
        -1.70235276222229,
        0.642564058303833,
        1.0
      ],
      "name": "Tail_6"
    },
    {
      "mesh": 9,
      "name": "Object_18"
    }
  ],
  "samplers": [
    {
      "magFilter": 9729,
      "minFilter": 9987,
      "wrapS": 10497,
      "wrapT": 10497
    }
  ],
  "scene": 0,
  "scenes": [
    {
      "name": "Sketchfab_Scene",
      "nodes": [
        0
      ]
    }
  ],
  "textures": [
    {
      "sampler": 0,
      "source": 0
    },
    {
      "sampler": 0,
      "source": 1
    },
    {
      "sampler": 0,
      "source": 2
    }
  ]
}
